<?xml version="1.0" encoding="utf-8"?>
<!-- Generator: Adobe Illustrator 27.8.1, SVG Export Plug-In . SVG Version: 6.00 Build 0)  -->
<svg version="1.1" id="Layer_1" xmlns="http://www.w3.org/2000/svg" xmlns:xlink="http://www.w3.org/1999/xlink" x="0px" y="0px"
	 viewBox="0 0 284 64.6" style="enable-background:new 0 0 284 64.6;" xml:space="preserve">
<style type="text/css">
	.st0{fill:#262626;}
	.st1{fill:#2E39BF;}
</style>
<path class="st0" d="M74.1,31c0-4.6,3.6-8.1,8.6-8.1s8.6,3.4,8.6,8.1s-3.7,8.1-8.6,8.1S74.1,35.6,74.1,31z M87.6,31c0-3-2.1-5-4.9-5
	s-4.9,2-4.9,5s2.1,5,4.9,5S87.6,34,87.6,31z"/>
<path class="st0" d="M106.1,26.8v10c0,4.5-2.4,6.5-6.8,6.5c-2.3,0-4.5-0.6-5.9-1.7l1.4-2.5c1,0.8,2.7,1.4,4.2,1.4
	c2.5,0,3.5-1.1,3.5-3.3v-0.5c-0.9,1-2.2,1.5-3.8,1.5c-3.3,0-6-2.3-6-5.8s2.7-5.8,6-5.8c1.7,0,3.1,0.6,4,1.7v-1.5L106.1,26.8
	L106.1,26.8z M102.7,32.4c0-1.8-1.3-3-3.2-3s-3.2,1.2-3.2,3c0,1.8,1.3,3,3.2,3S102.7,34.2,102.7,32.4z"/>
<path class="st0" d="M116.8,26.6v3.2c-0.3,0-0.5,0-0.8,0c-1.9,0-3.2,1-3.2,3.4v5.7h-3.5v-12h3.3v1.6C113.5,27.2,115,26.6,116.8,26.6
	z"/>
<path class="st0" d="M117.9,32.8c0-3.6,2.8-6.2,6.6-6.2c3.8,0,6.6,2.6,6.6,6.2s-2.8,6.2-6.6,6.2S117.9,36.4,117.9,32.8z M127.6,32.8
	c0-2.1-1.3-3.3-3.1-3.3s-3.1,1.2-3.1,3.3s1.3,3.3,3.1,3.3S127.6,34.9,127.6,32.8z"/>
<path class="st0" d="M145.8,31.9v6.9h-3.5v-6.3c0-2-0.9-2.8-2.4-2.8c-1.7,0-2.9,1-2.9,3.2v6h-3.5v-12h3.3v1.4c0.9-1,2.4-1.6,4-1.6
	C143.6,26.6,145.7,28.3,145.8,31.9L145.8,31.9z"/>
<path class="st0" d="M148.5,23.2c0-1.1,0.9-2,2.2-2s2.2,0.8,2.2,1.9c0,1.2-0.9,2-2.2,2S148.5,24.3,148.5,23.2L148.5,23.2z
	 M148.9,26.8h3.5v12h-3.5V26.8z"/>
<path class="st0" d="M162.2,23.2h3.6v15.7h-3.6C162.2,38.8,162.2,23.2,162.2,23.2z"/>
<path class="st0" d="M181.6,31.9v6.9h-3.5v-6.3c0-2-0.9-2.8-2.4-2.8c-1.7,0-2.9,1-2.9,3.2v6h-3.5v-12h3.3v1.4c0.9-1,2.4-1.6,4-1.6
	C179.5,26.6,181.6,28.3,181.6,31.9L181.6,31.9z"/>
<path class="st0" d="M188.6,27.1h3.1v2.7h-3v9.1h-3.5v-9.1h-1.9v-2.7h1.9v-0.5c0-2.7,1.7-4.5,4.6-4.5c1,0,2,0.2,2.7,0.6l-0.9,2.5
	c-0.4-0.3-0.9-0.4-1.4-0.4c-1,0-1.6,0.6-1.6,1.8L188.6,27.1L188.6,27.1z"/>
<path class="st0" d="M192.4,32.8c0-3.6,2.8-6.2,6.6-6.2s6.6,2.6,6.6,6.2S202.8,39,199,39S192.4,36.4,192.4,32.8z M202.1,32.8
	c0-2.1-1.3-3.3-3.1-3.3s-3.1,1.2-3.1,3.3s1.3,3.3,3.1,3.3S202.1,34.9,202.1,32.8z"/>
<path class="st0" d="M215.4,26.6v3.2c-0.3,0-0.5,0-0.8,0c-1.9,0-3.2,1-3.2,3.4v5.7h-3.5v-12h3.3v1.6
	C212.1,27.2,213.5,26.6,215.4,26.6z"/>
<path class="st0" d="M237.8,31.9v6.9h-3.5v-6.3c0-2-0.9-2.8-2.3-2.8c-1.6,0-2.7,1-2.7,3.2v6h-3.5v-6.3c0-2-0.8-2.8-2.3-2.8
	c-1.5,0-2.6,1-2.6,3.2v6h-3.5v-12h3.3v1.4c0.9-1,2.2-1.6,3.8-1.6c1.7,0,3.1,0.6,4,2c1-1.2,2.5-2,4.3-2
	C235.7,26.6,237.8,28.3,237.8,31.9L237.8,31.9z"/>
<path class="st0" d="M251.6,32v6.9h-3.3v-1.5c-0.6,1.1-1.9,1.7-3.7,1.7c-2.8,0-4.5-1.6-4.5-3.7s1.5-3.6,5.2-3.6h2.8
	c0-1.5-0.9-2.4-2.8-2.4c-1.3,0-2.6,0.4-3.5,1.1l-1.2-2.4c1.3-0.9,3.3-1.5,5.2-1.5C249.5,26.6,251.6,28.3,251.6,32L251.6,32z
	 M248.1,35v-1.2h-2.4c-1.6,0-2.1,0.6-2.1,1.4c0,0.9,0.7,1.5,2,1.5C246.7,36.7,247.7,36.1,248.1,35L248.1,35z"/>
<path class="st0" d="M262.5,38.2c-0.7,0.5-1.8,0.8-2.8,0.8c-2.8,0-4.5-1.5-4.5-4.3v-4.9h-1.9v-2.7h1.9v-2.9h3.5v2.9h3v2.7h-3v4.9
	c0,1,0.6,1.6,1.5,1.6c0.5,0,1-0.2,1.4-0.5C261.6,35.8,262.5,38.2,262.5,38.2z"/>
<path class="st0" d="M264.1,23.2c0-1.1,0.9-2,2.2-2s2.2,0.8,2.2,1.9c0,1.2-0.9,2-2.2,2S264.1,24.3,264.1,23.2L264.1,23.2z
	 M264.5,26.8h3.5v12h-3.5V26.8z"/>
<path class="st0" d="M278.9,38.8l-2.6-3.7l-2.7,3.7h-3.8l4.6-6.1l-4.5-6h3.9l2.5,3.5l2.6-3.5h3.7l-4.5,5.9l4.6,6.2H278.9L278.9,38.8
	z"/>
<path class="st1" d="M38.2,1.4L38.2,1.4L38.2,1.4C37,1.2,35.7,1,34.4,0.9l0,0l0,0v6.3l0,0v3.1c0.8,0.1,1.6,0.2,2.4,0.3
	c0.5,0.1,0.9,0.2,1.4,0.3c8.7,2.3,15.3,9.9,16.2,19.1h9.5C62.9,15.7,52.2,3.9,38.2,1.4z"/>
<path class="st1" d="M30.7,4.1V0.9C16.2,1.8,4.4,12.4,1.7,26.3c-0.2,1.2-0.4,2.5-0.5,3.8h9.5c0.1-1.3,0.4-2.5,0.7-3.8
	c2.4-8.7,10-15.2,19.3-15.9V7.2c-11,0.8-20,8.7-22.5,19.1H4.9C7.5,14.2,18,4.9,30.7,4.1z"/>
<path class="st1" d="M29.7,54.1C29.7,54.1,29.7,54.1,29.7,54.1c-0.2,0-0.3,0-0.5-0.1c0,0-0.1,0-0.1,0c-0.1,0-0.3,0-0.4-0.1
	c0,0-0.1,0-0.1,0c-0.1,0-0.2,0-0.4-0.1c0,0-0.1,0-0.2,0c-0.1,0-0.2,0-0.3-0.1c-0.1,0-0.1,0-0.2,0c-0.1,0-0.2,0-0.3-0.1
	c-0.1,0-0.1,0-0.2,0c-9-2.3-15.8-10.2-16.5-19.7H1.2c0.7,14.7,11.6,26.7,25.7,29.3l0,0l0,0c1.2,0.2,2.5,0.4,3.8,0.5l0,0v-6.3l0,0
	v-3.2l0,0C30.4,54.2,30,54.1,29.7,54.1z"/>
<path class="st1" d="M60.8,33.9h-6.3c-0.1,1.3-0.3,2.5-0.6,3.8l0,0l0,0c-2.2,9-10,15.8-19.4,16.5v3.2c11.2-0.8,20.3-9,22.7-19.7h3.2
	c-2.4,12.5-12.9,22-25.9,22.8v3.2c14.7-0.9,26.6-11.8,29.1-26c0.2-1.2,0.3-2.5,0.4-3.8L60.8,33.9L60.8,33.9z"/>
<path class="st1" d="M30.7,13.6v3.1C23.6,17.6,18,23.1,17,30.1h-3.1C14.9,21.4,21.9,14.5,30.7,13.6z"/>
<path class="st1" d="M51.2,33.9c-0.7,9-7.8,16.2-16.8,17.1v-3.1c7.3-0.9,13-6.7,13.7-14L51.2,33.9L51.2,33.9z"/>
<path class="st1" d="M30.7,47.9V51c-9-0.9-16.1-8.1-16.8-17.1h3.1C17.7,41.2,23.4,47,30.7,47.9z"/>
<path class="st1" d="M51.2,30.1h-3.1c-1-7-6.6-12.6-13.7-13.4v-3.1C43.2,14.5,50.1,21.4,51.2,30.1z"/>
<path class="st1" d="M34.4,13.6V51c-0.6,0.1-1.3,0.1-1.9,0.1s-1.2,0-1.9-0.1V13.6c0.6-0.1,1.2-0.1,1.9-0.1S33.8,13.6,34.4,13.6z"/>
<path class="st1" d="M51.3,32.3c0,0.5,0,1-0.1,1.6H13.8c0-0.5-0.1-1-0.1-1.6c0-0.8,0-1.5,0.1-2.2h37.3
	C51.3,30.8,51.3,31.6,51.3,32.3L51.3,32.3z"/>
</svg>
